<svg width="107" height="63" viewBox="0 0 107 63" fill="none" xmlns="http://www.w3.org/2000/svg">
<path d="M53.3283 -31.3786C55.3065 -35.7999 61.7866 -35.1067 62.7849 -30.367L68.1208 -5.03347C68.5672 -2.91385 70.3277 -1.32276 72.4816 -1.09236L98.2241 1.6614C103.04 2.1766 104.383 8.55373 100.184 10.9678L77.7395 23.871C75.8616 24.9506 74.8924 27.1167 75.3389 29.2363L80.6747 54.5698C81.673 59.3094 76.0231 62.5575 72.4296 59.3099L53.2221 41.951C51.615 40.4986 49.2555 40.2462 47.3776 41.3258L24.9328 54.229C20.7336 56.643 15.8986 52.2733 17.8768 47.8521L28.4507 24.2205C29.3354 22.2433 28.8463 19.9212 27.2393 18.4688L8.03174 1.10992C4.43823 -2.13774 7.09994 -8.08645 11.9161 -7.57125L37.6586 -4.81749C39.8124 -4.58708 41.8697 -5.76977 42.7544 -7.747L53.3283 -31.3786Z" fill="#E3F98F"/>
</svg>
